<svg width="252" height="162" viewBox="0 0 252 162" fill="none" xmlns="http://www.w3.org/2000/svg">
<rect width="251.816" height="161.557" fill="black" fill-opacity="0"/>
<rect width="251.816" height="161.557" fill="black" fill-opacity="0"/>
<rect width="251.816" height="161.557" fill="black" fill-opacity="0"/>
<path d="M186.513 69.4811C188.145 66.8511 186.949 64.699 183.853 64.699H150.16C147.065 64.699 145.869 66.851 147.502 69.48L164.041 96.103C165.675 98.732 168.348 98.7321 169.98 96.1021L186.513 69.4811ZM199.327 59.412C200.969 62.037 201.002 66.35 199.398 68.999L176.807 106.331C175.204 108.979 171.361 111.146 168.265 111.146H166.064C162.968 111.146 159.126 108.979 157.526 106.328L130.966 62.349C129.366 59.699 129.345 55.35 130.921 52.686L131.483 51.7361C133.059 49.0711 135.11 48.2481 136.04 49.9081C136.972 51.5671 140.266 52.9241 143.362 52.9241H189.639C192.734 52.9241 196.611 55.0711 198.252 57.6951L199.327 59.412ZM50.0226 102.113C53.1186 102.113 54.3326 99.951 52.7216 97.307L36.5046 70.703C34.8936 68.06 32.2566 68.06 30.6456 70.703L14.4286 97.307C12.8176 99.951 14.0326 102.113 17.1276 102.113H50.0226ZM34.4296 54.9451C37.5256 54.9451 41.3646 57.1151 42.9596 59.7671L66.0117 98.0811C67.6077 100.733 67.6396 105.092 66.0826 107.768L37.7826 156.399C36.2256 159.075 32.4186 161.264 29.3236 161.264H27.0246C23.9286 161.264 22.6596 159.069 24.2026 156.385L45.8456 118.768C47.3886 116.085 46.1196 113.889 43.0236 113.889H10.3286C7.23265 113.889 3.43264 111.697 1.88364 109.016L1.13562 107.721C-0.413377 105.041 -0.37235 100.679 1.22565 98.028L24.2936 59.764C25.8916 57.113 29.7316 54.944 32.8276 54.944H34.4296V54.9451ZM103.838 69.48C105.472 66.851 104.276 64.699 101.181 64.699H67.9606C64.8646 64.699 63.6686 66.85 65.3046 69.479L81.6027 95.6931C83.2367 98.3221 85.9117 98.3221 87.5457 95.6931L103.838 69.48ZM150.598 0.410034C153.694 0.410034 154.937 2.59003 153.361 5.25403L93.5906 106.282C92.0146 108.946 88.1916 111.13 85.0966 111.135L83.5587 111.137C80.4627 111.142 76.6196 108.979 75.0176 106.33L52.3006 68.7621C50.6986 66.1131 50.7016 61.7801 52.3066 59.1331L53.1546 57.7361C54.7596 55.0891 58.6067 52.923 61.7017 52.923H107.979C111.075 52.923 114.874 50.73 116.422 48.048L141.112 5.28308C142.66 2.60208 146.46 0.408081 149.555 0.408081H150.598V0.410034ZM234.696 102.35C237.791 102.35 238.99 100.197 237.359 97.566L221.214 71.522C219.583 68.891 216.914 68.891 215.283 71.522L199.137 97.566C197.506 100.197 198.705 102.35 201.801 102.35H234.696V102.35ZM249.939 109.253C248.39 111.934 244.59 114.127 241.494 114.127H208.96C205.865 114.127 204.599 116.321 206.146 119.002L227.869 156.628C229.416 159.308 228.15 161.518 225.055 161.539L222.305 161.557C219.21 161.578 215.414 159.399 213.87 156.715L192.178 119.007C190.635 116.323 188.087 111.945 186.518 109.278L185.763 107.994C184.193 105.326 184.226 100.98 185.837 98.3361L208.836 60.594C210.446 57.95 214.297 55.787 217.393 55.787H218.996C222.091 55.787 225.944 57.9491 227.558 60.5911L250.571 98.2841C252.184 100.925 252.237 105.281 250.688 107.96L249.939 109.253ZM119.959 33.547C118.364 36.2 115.785 36.1831 114.227 33.5081L97.5386 4.86304C95.9796 2.18804 97.2376 0 100.333 0H101.376C104.471 0 108.283 2.18701 109.845 4.85901L120.492 23.074C122.055 25.747 122.028 30.1041 120.434 32.7581L119.959 33.547Z" fill="black"/>
</svg>
