<svg width="1280" height="822" viewBox="0 0 1280 822" fill="none" xmlns="http://www.w3.org/2000/svg">
<path d="M948.059 353.178C956.355 339.809 950.275 328.87 934.538 328.87H763.274C747.541 328.87 741.462 339.809 749.763 353.172L833.832 488.5C842.138 501.863 855.725 501.863 864.02 488.495L948.059 353.178ZM1013.19 301.996C1021.54 315.339 1021.71 337.263 1013.55 350.728L898.723 540.489C890.574 553.949 871.04 564.964 855.303 564.964H844.115C828.378 564.964 808.849 553.949 800.716 540.474L665.709 316.925C657.576 303.455 657.469 281.349 665.48 267.807L668.337 262.979C676.348 249.432 686.773 245.249 691.5 253.687C696.238 262.12 712.982 269.017 728.719 269.017H963.949C979.681 269.017 999.388 279.931 1007.73 293.269L1013.19 301.996ZM254.269 519.049C270.006 519.049 276.177 508.059 267.988 494.619L185.556 359.389C177.367 345.955 163.963 345.955 155.774 359.389L73.3419 494.619C65.153 508.059 71.329 519.049 87.0611 519.049H254.269ZM175.009 279.29C190.746 279.29 210.26 290.321 218.367 303.801L335.543 498.554C343.655 512.034 343.818 534.191 335.903 547.794L192.052 794.989C184.138 808.591 164.787 819.718 149.054 819.718H137.368C121.631 819.718 115.181 808.561 123.024 794.918L233.037 603.707C240.88 590.07 234.43 578.907 218.693 578.907H52.5014C36.7641 578.907 17.4484 567.765 9.57469 554.138L5.77247 547.555C-2.10123 533.932 -1.89269 511.76 6.23008 498.284L123.487 303.785C131.609 290.31 151.128 279.285 166.866 279.285H175.009V279.29ZM527.815 353.172C536.121 339.809 530.042 328.87 514.31 328.87H345.449C329.712 328.87 323.633 339.804 331.949 353.167L414.793 486.416C423.099 499.779 436.696 499.779 445.002 486.416L527.815 353.172ZM765.5 2.08424C781.237 2.08424 787.556 13.1653 779.545 26.7067L475.729 540.24C467.718 553.782 448.285 564.883 432.553 564.908L424.735 564.919C408.998 564.944 389.464 553.949 381.321 540.484L265.848 349.523C257.705 336.058 257.721 314.033 265.879 300.578L270.189 293.477C278.348 280.022 297.902 269.012 313.635 269.012H548.864C564.601 269.012 583.912 257.865 591.781 244.232L717.282 26.8543C725.151 13.2266 744.466 2.07431 760.198 2.07431H765.5V2.08424ZM1192.98 520.254C1208.71 520.254 1214.8 509.31 1206.51 495.936L1124.45 363.552C1116.16 350.178 1102.59 350.178 1094.3 363.552L1012.23 495.936C1003.94 509.31 1010.03 520.254 1025.77 520.254H1192.98V520.254ZM1270.46 555.342C1262.58 568.97 1243.27 580.117 1227.53 580.117H1062.16C1046.43 580.117 1039.99 591.269 1047.86 604.897L1158.27 796.153C1166.14 809.776 1159.7 821.009 1143.97 821.116L1129.99 821.207C1114.26 821.314 1094.97 810.238 1087.12 796.595L976.855 604.922C969.011 591.279 956.06 569.026 948.084 555.469L944.247 548.942C936.266 535.381 936.434 513.29 944.623 499.85L1061.53 308.004C1069.71 294.565 1089.29 283.57 1105.02 283.57H1113.17C1128.9 283.57 1148.49 294.56 1156.69 307.989L1273.67 499.586C1281.87 513.01 1282.14 535.152 1274.27 548.77L1270.46 555.342ZM609.759 170.522C601.652 184.008 588.543 183.921 580.623 170.324L495.797 24.7192C487.872 11.122 494.267 0 509.999 0H515.301C531.033 0 550.409 11.1167 558.349 24.6987L612.469 117.287C620.414 130.874 620.277 153.021 612.174 166.512L609.759 170.522Z" fill="white"/>
</svg>
